<?xml version="1.0" encoding="UTF-8"?>
<!DOCTYPE svg PUBLIC "-//W3C//DTD SVG 1.0//EN" "http://www.w3.org/TR/2001/REC-SVG-20010904/DTD/svg10.dtd">
<!-- Creator: CorelDRAW 2020 (64-Bit) -->
<svg xmlns="http://www.w3.org/2000/svg" xml:space="preserve" width="200px" height="200px" version="1.0" style="shape-rendering:geometricPrecision; text-rendering:geometricPrecision; image-rendering:optimizeQuality; fill-rule:evenodd; clip-rule:evenodd"
viewBox="0 0 14340 14340"
 xmlns:xlink="http://www.w3.org/1999/xlink"
 xmlns:xodm="http://www.corel.com/coreldraw/odm/2003">
 <defs>
  <style type="text/css">
   <![CDATA[
    .fil0 {fill:white;fill-rule:nonzero}
   ]]>
  </style>
 </defs>
 <g id="Layer_x0020_1">
  <metadata id="CorelCorpID_0Corel-Layer"/>
  <g>
   <path class="fil0" d="M8470 8780l0 0 0 0zm3630 2670l0 0zm-5240 -6620c-160,120 310,520 390,430 120,-160 -180,-570 -390,-430zm140 2140c-90,0 -150,200 -100,340 160,-30 160,-290 150,-310l-50 -30zm0 -30l190 100c100,60 20,340 -80,360 -120,40 -180,-30 -330,-110 -150,-90 -70,-440 50,-420 50,20 60,60 130,60 20,0 30,0 40,10zm-2470 4670c-90,20 -60,10 -170,50 30,-180 190,-100 350,-150 20,0 30,0 40,-10l-10 80c-130,50 -320,120 -290,290 40,230 380,90 400,120l-90 80c-20,10 -210,40 -300,-30 -90,-80 -100,-240 10,-360 0,-10 30,-30 60,-70zm160 170l-30 70 -70 -30 20 -70 80 30zm3710 -7250c-140,30 -100,10 -270,70 20,-110 50,-160 190,-180 100,-20 230,-10 360,-40 20,-10 40,-20 50,-20l0 120c-210,70 -510,200 -470,460 60,360 610,150 640,180l-140 130 -280 30c-290,-30 -350,-310 -290,-490 40,-100 110,-160 210,-260zm240 260l-40 110 -110 -40 30 -110 120 40zm-6380 4410c-130,220 300,710 400,840 -180,100 40,340 140,370 30,10 60,60 100,130 130,330 290,200 490,280 -130,-160 -280,-90 -380,-250 -20,-90 -100,-240 -220,-280 -40,-10 -80,-120 10,-100 40,0 80,20 120,30 -20,-50 -90,-130 -150,-210 -100,-130 -420,-500 -360,-650 30,-70 120,-60 210,20 180,140 400,490 490,550 -100,-150 -260,-390 -420,-570 -120,-120 -340,-310 -430,-160zm5340 3420c200,160 740,-210 870,-290 80,190 350,10 390,-90 10,-30 70,-60 140,-80 350,-90 230,-270 340,-460 -180,110 -130,270 -290,350 -90,10 -260,70 -310,180 -20,50 -130,70 -100,-20 10,-30 30,-70 40,-120 -170,80 -730,500 -910,400 -60,-30 -40,-120 40,-200 170,-160 540,-330 620,-420 -170,80 -430,210 -620,350 -140,100 -350,290 -210,400zm-5050 -5150c170,110 50,280 -60,280 -200,0 -160,-320 10,-340 -80,50 -150,260 -20,270 60,0 110,-100 40,-130 -10,-30 10,-60 30,-80zm2610 -200c260,170 90,430 -90,430 -300,0 -240,-490 30,-530 -130,80 -230,400 -30,410 90,10 160,-140 50,-190 -10,-40 10,-90 40,-120zm-1300 -4000c330,210 100,540 -120,540 -380,0 -310,-620 30,-670 -160,110 -290,500 -40,530 120,10 220,-180 80,-250 -20,-50 10,-120 50,-150zm1100 6780c60,50 150,180 40,220 -150,70 -80,-150 -40,-220zm-170 250c120,400 530,-180 250,-370l90 -200c-130,20 -400,400 -340,570zm-2650 -4520c100,70 230,270 70,340 -240,110 -130,-240 -70,-340zm-260 380c190,610 810,-280 380,-570l140 -300c-190,40 -600,610 -520,870zm8820 -260l40 -50c0,0 120,160 100,300 0,0 70,20 110,-40 30,-60 90,-660 290,-350 0,0 80,-150 70,-180 -20,-30 -120,-190 -240,-20 -110,160 -50,310 -160,400 0,0 -50,-350 -270,-370 -100,210 -110,240 60,310zm-5950 -200l30 -50c0,0 140,170 110,320 0,0 80,30 120,-40 30,-70 90,-710 310,-380 0,0 80,-160 70,-190 -10,-30 -130,-200 -250,-20 -120,170 -50,330 -170,430 0,0 -50,-380 -300,-400 0,0 -90,190 -70,240 20,40 150,90 150,90zm1420 -3600l40 -50c0,0 120,160 100,300 0,0 70,20 110,-40 30,-60 90,-660 290,-350 0,0 80,-150 70,-180 -20,-20 -120,-180 -240,-20 -110,160 -50,310 -160,400 0,0 -50,-350 -270,-370 -100,210 -100,240 60,310zm5650 7170c-40,30 -100,320 -100,530l170 100c-110,180 -110,130 -340,0 -100,-60 0,-710 60,-750l210 120zm-750 -550c270,140 340,-280 510,-170l90 50c50,10 110,-10 120,-110 10,-10 20,-30 20,-40l210 130c0,0 -20,20 -20,30 -20,220 -230,50 -250,40 -140,-20 -220,320 -470,190l-210 -120zm-2490 120c-60,0 -90,150 -80,270 100,-70 120,-290 210,-240l130 80c30,-40 60,-150 60,-200l200 120c0,50 -30,250 -100,220l-140 -90c-50,50 -80,190 -160,230 -50,30 -100,40 -130,20l-210 -120c-120,-70 -70,-410 10,-410l210 120zm420 240l0 0zm-3400 2670c100,0 220,-80 270,-50 240,130 270,100 230,310 -30,210 -70,370 -30,460 110,20 250,10 460,-20l210 120c-520,70 -530,30 -800,-130 -160,-90 -80,-320 -40,-590 -30,10 -60,20 -90,20l-210 -120zm-940 -3030c220,0 460,180 430,440 300,-150 770,-380 1070,-210 -60,-80 -1050,350 -1140,460l-210 -120c80,-160 160,-360 -150,-570zm-980 1740c40,-40 90,-70 120,-100l200 120c-20,30 -70,60 -110,100l-210 -120zm140 460c40,-40 60,-90 100,-130l210 120c-40,40 -60,90 -100,130l-210 -120zm-590 -2480c290,10 390,510 390,720l0 240c0,-240 -110,-710 -390,-720l0 -240zm380 1360c-100,0 -170,230 -120,380 190,-30 190,-330 170,-350l-50 -30zm0 -40l210 120c120,70 30,390 -80,410 -70,20 -130,20 -170,-10l-210 -120c-180,-100 -90,-510 50,-480 70,20 80,70 150,70 20,0 40,0 50,10zm2980 -3870l-1530 490c-90,30 0,80 70,200l-210 -120c-70,-120 -160,-170 -70,-200l1530 -490 210 120zm6010 130l-1740 550c-90,30 0,90 70,200l-210 -120c-70,-120 -160,-170 -70,-200l1740 -550 210 120zm-2870 -3670l-1470 480c-90,30 0,80 70,200l-210 -120c-70,-120 -160,-170 -70,-200l1470 -480 210 120zm-1190 -340l-2470 810c-90,30 0,80 70,200l-210 -120c-70,-120 -160,-170 -70,-200l2470 -810 210 120zm-5190 4390l340 280 -230 380 -420 -360 180 -350 -310 -270 200 -380 450 370 -210 330zm3410 5140l520 430 -270 430 -480 -420 230 -440zm1910 -2200l520 430 -270 430 -490 -420 240 -440zm-3700 -6790l530 430 -280 440 -470 -410 -260 410 -480 -420 230 -450 510 420 220 -420zm5960 610l520 430 -270 440 -470 -410 -260 410 -480 -420 230 -450 510 420 220 -420zm-1320 2940l520 420 -270 440 -490 -420 240 -440zm-2370 2730l520 430 -280 430 -470 -410 -250 410 -490 -420 240 -440 500 410 230 -410zm-1380 -2360l520 430 -270 430 -490 -420 240 -440zm6400 570c450,1330 -900,1360 -950,860 -260,410 -830,630 -1150,180 -90,280 -900,530 -1310,210 -620,260 -1030,180 -1400,-80 -190,300 -730,450 -1140,0 -730,360 -1410,420 -1910,270 10,460 30,890 50,1190 40,410 40,740 250,1010 370,480 1100,560 2330,30 -870,-360 -1230,-100 -1730,-20 90,-240 300,-650 610,-710 650,-130 1150,330 2370,250 40,30 -130,500 -420,690 -110,20 -210,50 -310,80 140,210 680,150 880,0 170,-130 160,-290 300,-350 -50,120 -60,210 -30,270 90,250 880,310 1080,-40 150,-270 -200,-1400 70,-2120 2260,610 1510,3080 -120,3100 760,-320 1150,-980 1170,-1540 10,-420 -270,-860 -950,-1010 -160,800 470,2060 -710,2250 -340,50 -670,10 -720,-220 -220,420 -990,270 -1160,-20 -40,-70 -70,-150 -90,-240 -530,150 -960,320 -1330,390 -890,180 -1390,10 -1620,-670 -180,-520 -190,-1440 -190,-2430 -270,-140 -470,-360 -560,-630 -460,-10 -860,1130 -1370,1080 -890,-110 -300,-1770 300,-2210 -210,370 -830,1390 -350,1720 470,320 890,-1110 1570,-1110 40,230 190,410 400,540 0,-500 0,-1020 10,-1370l-180 50 440 -600c-10,470 -20,1270 -10,2050 710,280 1750,180 2100,-300 -10,150 0,290 70,370 140,130 390,140 610,80 320,-90 240,-300 390,-550 130,350 450,540 930,480 -320,-540 860,-1170 1010,-980 140,190 140,620 -140,920 210,40 680,90 1120,-460 -30,80 -60,260 40,300 580,200 880,-220 1010,-400 -20,60 -70,180 -20,250 140,260 600,210 610,80 0,-90 -30,-200 -70,-370 -10,-20 170,-280 220,-270zm-3600 720c150,190 550,80 610,-40 170,-330 -140,-340 -380,-250 -170,60 -330,180 -230,290zm1040 -2390c90,670 -1800,1830 -2550,1320 -240,-170 -410,-570 -310,-1180 -190,-110 -340,-310 -290,-520 -990,220 -1630,90 -1890,-670 -460,170 -760,1390 -1370,1390 -680,0 -580,-1500 -100,-1910 -300,860 -230,1420 310,1420 500,0 600,-1210 1300,-1460 50,450 380,1120 1630,760 -280,-180 -750,-390 -350,-1020 550,-870 2490,120 3640,20l-240 480c-870,110 -1190,220 -1980,580 280,930 -150,1130 -530,1000 -50,340 50,560 240,680 500,330 2110,-410 2320,-940 -260,-310 -140,-600 -20,-740 200,390 1570,480 1800,230 110,-110 -300,-300 100,-660 420,980 -90,1270 -830,1330 -380,20 -750,-40 -880,-110zm-1590 -1520c-440,-160 -1640,-410 -1910,70 960,590 1080,220 1910,-70zm5510 4580c-20,-30 -20,-50 -50,-30 0,0 -10,30 0,30l0 0c80,90 70,200 -20,260l-160 120c40,-150 70,-300 100,-450 90,10 120,-130 20,-150 30,-150 50,-300 60,-450 120,170 250,280 40,430 -20,10 0,40 20,30 200,-150 270,10 370,160l-140 90c-80,60 -180,40 -240,-40zm0 960l70 150c-170,80 -300,180 -400,-40 -20,-40 -50,20 -30,20 110,220 -100,270 -250,340 60,-140 120,-280 180,-420 90,30 140,-100 50,-140 50,-140 90,-290 130,-440 90,190 190,320 -30,430 -30,10 -10,40 10,30l40 -20c90,-40 190,0 230,90zm-440 1250c-170,50 -330,120 -390,-120 0,-30 -50,10 -30,10l10 40c30,90 -30,190 -120,210l-200 50c90,-120 170,-250 250,-380 90,40 160,-80 80,-130 70,-130 140,-270 210,-410 50,200 130,350 -120,420 -20,0 -10,40 10,30 240,-60 250,100 300,280zm-860 1010c-100,0 -180,-70 -190,-160 -10,-80 -40,-80 -30,0 10,210 -210,190 -360,210l310 -340c70,60 170,-50 90,-110 100,-120 190,-250 280,-370l20 200c10,100 -60,180 -160,190 -20,0 -60,0 -60,20 10,30 40,20 70,10 90,-10 170,60 180,160l20 170 -170 20zm-640 290c-10,90 -90,160 -190,150 -20,0 -60,-10 -60,10 0,30 30,30 60,30 100,10 170,90 160,180l-20 180c-180,-20 -340,0 -320,-250 0,-10 10,-20 0,-20 -10,0 0,20 0,20l-20 40c-10,100 -100,170 -200,160l-200 -20 360 -280c60,70 170,-20 110,-90 120,-100 230,-210 340,-320l-20 210zm-900 710c-20,90 -110,140 -210,120 -20,-10 -50,-20 -60,0 -10,20 30,30 50,30 100,30 150,120 130,210l-50 170c-180,-50 -340,-60 -280,-300 10,-30 -20,-20 -20,0l0 0 -20 40c-60,190 -250,100 -400,60 140,-60 270,-130 400,-210 50,90 180,10 130,-70 130,-80 260,-160 390,-250l-60 200zm-1000 540c-40,90 -140,120 -230,80 -20,-10 -50,-30 -60,-10 -10,30 20,30 50,50 80,40 120,140 80,220l-70 160c-170,-80 -330,-120 -230,-340 10,-10 30,-20 20,-20 -10,-10 -10,0 -10,10l-30 30c-50,90 -160,130 -240,90l-190 -90c150,-40 290,-80 430,-130 40,90 170,30 140,-50 140,-60 290,-120 420,-180l-80 180zm-1090 360c-50,80 -160,100 -240,40 -20,-10 -40,-40 -60,-20 -10,20 20,40 40,50 80,60 100,160 50,240l-100 140c-150,-100 -300,-170 -160,-370 20,-30 -30,-30 -30,-20l0 0c-140,200 -260,80 -430,-40 160,-10 310,-30 460,-60 20,100 160,70 140,-20 150,-30 300,-60 450,-100l-120 160zm-1520 -130c-3450,0 -6250,-2790 -6250,-6240 0,-3450 2800,-6250 6250,-6250 3450,0 6250,2800 6250,6250 0,3450 -2800,6240 -6250,6240zm390 300c-60,70 -170,70 -240,0 -20,-20 -40,-50 -60,-30 -10,20 20,40 30,50 70,70 70,180 0,250l-120 120c-130,-130 -260,-220 -90,-400 30,-20 -20,-40 -20,-20 -180,170 -270,40 -420,-110l460 20c0,90 150,90 150,0 150,0 300,-10 460,-20l-150 140zm-1140 -30c-80,50 -180,30 -240,-40 -10,-30 -30,-60 -50,-40 -20,10 10,30 20,60 60,70 40,180 -40,240l-140 90c-100,-140 -230,-260 -20,-400 10,0 10,-10 0,-20 -10,-30 0,-20 -60,20 -80,50 -180,30 -240,-50l-110 -160c150,40 290,70 440,100 -10,90 130,120 150,20 150,30 300,50 460,60l-170 120zm-1120 -230c-90,40 -190,0 -230,-90 -10,-20 -20,-50 -40,-40 -20,10 0,40 10,60 40,90 0,190 -80,230l-160 70c-80,-160 -170,-300 50,-400 20,-10 0,-40 -20,-30l-40 10c-80,40 -180,10 -220,-80l-90 -180c140,60 280,120 430,180 -30,90 100,140 130,50 150,50 290,90 440,130l-180 90zm-1060 -420c-90,20 -190,-30 -210,-120 -10,-30 -10,-60 -40,-60 -20,10 0,40 0,70 30,90 -30,180 -120,210l-160 40c-50,-170 -120,-330 110,-390 10,0 50,-50 -50,-20 -90,20 -180,-30 -210,-120l-50 -200c130,90 250,170 390,250 -50,90 70,160 120,80 140,70 270,140 410,210l-190 50zm-980 -600c-90,10 -170,-60 -180,-160 0,-30 0,-60 -30,-60 -20,10 -10,40 -10,70 10,90 -60,170 -150,180l-180 20c-10,-190 -60,-340 190,-360 40,-10 10,-50 10,-40l-50 0c-100,10 -180,-60 -190,-150l-20 -200c110,100 220,210 330,310l10 0c-60,70 50,170 110,90 120,100 240,190 360,280l-200 20zm-850 -760c-100,-10 -170,-90 -160,-190 0,-20 10,-60 -10,-60 -30,0 -20,30 -20,60 -10,100 -90,170 -190,160l-170 -20c20,-180 0,-340 240,-320 50,0 20,-40 20,-40 -260,-20 -210,-180 -190,-390l270 370c-70,60 20,170 100,110 100,120 200,230 310,340l-200 -20zm-710 -900c-90,-20 -150,-110 -120,-210 0,-20 20,-50 -10,-60 -20,-10 -20,30 -30,50 -20,100 -120,150 -210,130l-160 -50c40,-180 60,-340 290,-270 40,10 30,-40 30,-40 -260,-60 -180,-220 -130,-410 70,130 140,270 210,400 -80,50 -10,180 70,130 80,130 170,260 250,390l-190 -60zm-550 -1000c-80,-40 -120,-140 -80,-230 10,-20 30,-50 10,-60 -20,-10 -30,20 -40,50 -40,80 -140,120 -230,80l-160 -70c80,-170 120,-330 340,-220 10,0 50,0 50,-40 -260,-90 -140,-250 -70,-420 40,140 90,290 140,430 -90,40 -40,170 50,140 50,140 110,290 180,420l-190 -80zm-400 -1320c20,-30 40,-50 20,-70 -20,-10 -30,20 -50,40 -50,80 -160,100 -240,50l-140 -100c100,-150 170,-300 370,-160 10,10 20,30 30,20 0,-10 0,0 0,0l0 0 -40 -50c-80,-60 -100,-170 -40,-250l110 -170c20,150 40,300 60,450 -90,20 -70,160 30,140 20,150 60,300 100,450l-170 -120c-80,-50 -90,-160 -40,-230zm-120 -1140c20,-20 40,-40 30,-60 -20,-10 -40,20 -60,40 -70,60 -180,60 -240,0l-120 -130c130,-130 220,-260 390,-90 20,20 60,0 60,-20l-50 -30c-70,-70 -80,-180 -10,-250l140 -140 -20 460c-100,0 -100,150 0,150 0,150 10,300 20,460l-140 -150c-70,-60 -70,-170 0,-240zm-190 -1210l-100 -140c150,-110 270,-220 400,-20 10,0 70,30 10,-60 -50,-80 -40,-180 40,-240l170 -110c-40,150 -80,290 -100,440 -100,-10 -120,130 -30,150 -20,150 -40,300 -60,460 -120,-170 -240,-290 -40,-430 20,-20 0,-50 -20,-30l-30 20c-80,60 -190,40 -240,-40zm290 -1150l-80 -160c170,-80 300,-170 400,50 20,30 50,-10 40,-10 -110,-230 60,-270 240,-360 -60,140 -120,280 -170,430 -90,-30 -140,100 -50,130 -50,150 -100,290 -140,440 -80,-180 -190,-320 40,-430 20,-10 0,-40 -20,-30l-40 20c-80,40 -180,0 -220,-80zm430 -1250c180,-50 330,-130 390,110 0,10 50,50 30,-50 -30,-90 30,-180 120,-210l190 -50c-90,130 -170,250 -250,390 -80,-50 -150,70 -70,120 -80,140 -150,270 -210,410 -50,-200 -130,-350 110,-410 20,-10 10,-50 -10,-40 -240,70 -250,-100 -300,-270zm870 -1010c90,-10 180,60 180,160 10,20 0,60 30,60 10,0 10,-20 10,-20l0 0c-20,-260 150,-230 360,-250 -110,110 -210,220 -310,330l0 10c-80,-60 -170,50 -100,110 -100,120 -190,240 -280,360 -20,-200 -70,-360 180,-390 30,0 20,-30 0,-30 -240,20 -230,-140 -240,-330l170 -10zm630 -290c10,-100 100,-170 190,-160 30,0 60,10 60,-10 0,-30 -30,-20 -60,-20 -90,-10 -160,-90 -150,-190l10 -170c190,20 350,0 330,240 -10,50 30,70 30,70l10 -70c0,-100 90,-190 180,-180l200 10 -360 270c-70,-70 -180,30 -120,100 -110,100 -220,200 -330,310l10 -200zm900 -710c20,-90 120,-150 210,-120 30,0 60,20 60,-10 10,-20 -20,-20 -50,-30 -90,-20 -150,-120 -120,-210l40 -160c180,40 340,60 280,290 -10,40 30,20 30,20 70,-250 220,-170 420,-120 -140,70 -280,140 -410,210 -50,-80 -170,-10 -130,70 -130,80 -260,170 -380,250l50 -190zm1010 -550c40,-80 140,-120 220,-80 30,10 60,30 70,10 10,-20 -30,-30 -50,-40 -90,-40 -120,-140 -80,-230l70 -160c170,80 320,120 220,340 -20,40 30,20 30,20 110,-230 250,-120 430,-40 -150,40 -290,90 -440,140 -30,-90 -170,-40 -140,50 -140,50 -280,110 -420,180l90 -190zm1080 -360c50,-80 160,-90 240,-40 20,20 50,40 60,20 10,-20 -20,-30 -40,-50 -80,-50 -100,-160 -40,-240l100 -140c150,110 300,170 150,370 -10,20 20,40 30,30l0 0c150,-210 260,-80 430,30 -150,20 -300,40 -450,60 -20,-90 -160,-70 -150,30 -150,20 -300,60 -450,100l120 -170zm1130 -160c70,-70 180,-70 240,0 20,10 40,40 60,30 20,-20 -10,-40 -30,-60 -70,-70 -70,-180 0,-240l120 -120c130,120 270,220 90,390 -20,20 40,50 50,30 10,-60 150,-140 260,-30l140 140 -460 -20c-10,-100 -150,-100 -150,0 -160,0 -310,10 -460,20l140 -140zm1140 30c80,-60 190,-40 240,40 20,20 30,50 50,40 20,-20 0,-40 -20,-60 -50,-80 -30,-190 40,-240l150 -100c100,150 220,270 20,400 -20,20 50,50 50,30l0 0c70,-80 190,-60 250,20l110 170c-150,-40 -300,-80 -450,-100 20,-100 -130,-120 -150,-30 -150,-20 -300,-40 -450,-60l160 -110zm1120 230c90,-40 190,-10 230,80 10,30 20,60 40,50 30,-10 10,-40 -10,-70 -40,-80 0,-180 90,-220l150 -80c80,170 180,300 -50,400 -20,20 20,60 20,40 230,-110 260,50 350,240 -140,-60 -280,-120 -420,-170 30,-90 -100,-140 -140,-50 -140,-50 -290,-100 -440,-140l180 -80zm1070 420c90,-30 180,30 210,120 0,20 10,60 30,50 20,0 10,-30 0,-60 -20,-90 30,-190 120,-210l170 -50c50,180 120,330 -120,390 -20,10 0,50 10,50l40 -20c100,-20 190,30 210,120l50 190c-120,-90 -250,-170 -380,-250 40,-80 -80,-150 -130,-70 -130,-80 -270,-150 -410,-210l200 -50zm970 600c100,-10 180,60 190,150 0,30 0,60 20,60 30,0 20,-30 10,-60 -10,-100 60,-180 160,-190l170 -10c20,180 60,340 -180,360 -40,0 -10,60 0,30l40 0c100,-10 180,60 190,160l20 200 -340 -310c60,-80 -50,-170 -110,-100 -120,-100 -250,-190 -370,-280l200 -10zm860 750c90,10 160,100 150,190 0,30 -10,60 10,60 30,0 30,-30 30,-60 10,-90 90,-160 180,-150l180 10c-20,180 0,350 -250,330 -60,-10 -70,50 -70,40l0 0 80 0c90,10 180,90 170,180l-10 200 -270 -360c70,-70 -20,-180 -90,-120 -100,-110 -210,-220 -320,-330l210 10zm710 900c90,20 140,120 120,210 -10,30 -20,60 0,60 20,10 30,-20 30,-50 30,-90 120,-150 210,-120l170 40c-50,180 -60,340 -300,280 -20,-10 -20,40 0,40 20,-10 200,50 160,220l-60 190c-60,-140 -130,-280 -210,-410 90,-50 10,-170 -70,-130 -80,-130 -160,-260 -250,-380l200 50zm540 1010c90,40 120,140 80,220 -10,30 -30,60 -10,70 30,10 30,-30 50,-50 40,-90 140,-120 220,-80l160 70c-70,160 -120,330 -340,220 -30,-10 -30,50 -10,50 90,10 170,120 120,230l-90 180c-40,-150 -80,-290 -130,-440 90,-30 40,-170 -50,-140 -60,-140 -120,-280 -180,-420l180 90zm400 1320c-10,20 -40,50 -20,60 20,10 40,-20 50,-40 60,-80 160,-100 240,-40l140 100c-100,140 -170,300 -370,160 -20,-20 -40,30 -20,30 50,20 160,130 80,260l-120 160c-10,-150 -30,-300 -60,-450 100,-20 70,-160 -20,-150 -30,-150 -60,-300 -100,-440l160 110c80,50 100,160 40,240zm130 1130c-20,20 -50,40 -30,60 20,20 30,-10 50,-30 70,-70 180,-70 250,0l120 120c-130,130 -220,270 -400,90 -20,-20 -40,30 -20,40 30,10 150,140 30,260l-140 140 20 -460c90,0 90,-140 0,-140 0,-160 -10,-310 -20,-460l140 140c70,70 70,180 0,240zm40 730l580 -580 -580 -570 480 -670 -680 -470 350 -740 -750 -340 220 -790 -790 -210 80 -820 -820 -60 -70 -820 -820 80 -200 -800 -790 220 -340 -750 -750 360 -460 -680 -670 480 -580 -590 -570 590 -670 -480 -470 680 -740 -360 -340 750 -790 -220 -210 800 -820 -80 -60 820 -820 60 80 820 -800 210 220 790 -750 340 360 740 -680 470 480 670 -590 570 590 580 -480 670 680 460 -360 750 750 340 -220 790 800 200 -80 820 820 70 60 820 820 -80 210 790 790 -220 340 750 740 -350 470 680 670 -480 570 580 580 -580 670 480 460 -680 750 350 340 -750 790 220 200 -790 820 80 70 -820 820 -70 -80 -820 790 -200 -220 -790 750 -340 -350 -750 680 -460 -480 -670z"/>
  </g>
 </g>
</svg>
